# xmcd
#
# Track frame offsets: 
#        150
#        13854
#        33773
#        51572
#        61864
#        78970
#
# Disc length: 1272 seconds
#
# Revision: 0
# Processed by: cddbd v1.5.2PL0 Copyright (c) Steve Scherf et al.
# Submitted via: ExactAudioCopy v0.99pb5
#
DISCID=4304f606
DTITLE=Love You Moon - Macaraquary
DYEAR=2011
DGENRE=Acoustic
TTITLE0=Till I Go Down
TTITLE1=Bring It on Home
TTITLE2=Wind Cries Mary
TTITLE3=Rock Me Baby
TTITLE4=I Second the Emo
TTITLE5=Castles Made of Sand
EXTD=
EXTT0=
EXTT1=
EXTT2=
EXTT3=
EXTT4=
EXTT5=
PLAYORDER=
